<?xml version="1.0" encoding="UTF-8" standalone="no"?>
<!-- Generator: Adobe Illustrator 18.0.0, SVG Export Plug-In . SVG Version: 6.00 Build 0)  -->

<svg
   xmlns:dc="http://purl.org/dc/elements/1.1/"
   xmlns:cc="http://creativecommons.org/ns#"
   xmlns:rdf="http://www.w3.org/1999/02/22-rdf-syntax-ns#"
   xmlns:svg="http://www.w3.org/2000/svg"
   xmlns="http://www.w3.org/2000/svg"
   xmlns:sodipodi="http://sodipodi.sourceforge.net/DTD/sodipodi-0.dtd"
   xmlns:inkscape="http://www.inkscape.org/namespaces/inkscape"
   version="1.1"
   id="Ebene_1"
   x="0px"
   y="0px"
   viewBox="0 0 79.4 79.4"
   enable-background="new 0 0 79.4 79.4"
   xml:space="preserve"
   inkscape:version="0.91 r13725"
   sodipodi:docname="layout_custom.svg"><metadata
     id="metadata9"><rdf:RDF><cc:Work
         rdf:about=""><dc:format>image/svg+xml</dc:format><dc:type
           rdf:resource="http://purl.org/dc/dcmitype/StillImage" /></cc:Work></rdf:RDF></metadata><defs
     id="defs7" /><sodipodi:namedview
     pagecolor="#ffffff"
     bordercolor="#666666"
     borderopacity="1"
     objecttolerance="10"
     gridtolerance="10"
     guidetolerance="10"
     inkscape:pageopacity="0"
     inkscape:pageshadow="2"
     inkscape:window-width="690"
     inkscape:window-height="480"
     id="namedview5"
     showgrid="false"
     inkscape:zoom="2.9722921"
     inkscape:cx="-10.597882"
     inkscape:cy="39.700001"
     inkscape:window-x="0"
     inkscape:window-y="0"
     inkscape:window-maximized="0"
     inkscape:current-layer="Ebene_1" /><path
     fill="#ECEFF4"
     d="M72.2,79.4c3.9,0,7.1-3.2,7.1-7.1V7.1c0-3.9-3.2-7.1-7.1-7.1H7.1C3.2,0,0,3.2,0,7.1v65.1  c0,3.9,3.2,7.1,7.1,7.1H72.2z M36.9,68.6l-2.3-2.3c-1.5-1.5-1.5-4.1,0-5.6l2.3-2.3c1.5-1.5,4.1-1.5,5.6,0l2.3,2.3  c1.5,1.5,1.5,4.1,0,5.6l-2.3,2.3C40.9,70.2,38.4,70.2,36.9,68.6z M53.9,47.6H41.3c-3.5,0-5.3-4.3-2.8-6.8l0,0  c0.7-0.7,1.8-1.2,2.8-1.2h10.3c2.2,0,4-1.8,4-4V19.8c0-2.2-1.8-4-4-4H27.8c-2.2,0-4,1.8-4,4v0c0,2.2-1.8,4-4,4h0c-2.2,0-4-1.8-4-4  v-2.3c0-1.1,0.4-2.1,1.2-2.8l5.6-5.6c0.7-0.7,1.8-1.2,2.8-1.2h28.5c1.1,0,2.1,0.4,2.8,1.2l5.6,5.6c0.7,0.7,1.2,1.8,1.2,2.8v22.2h0  l-6.8,6.8C56,47.2,55,47.6,53.9,47.6z"
     id="path3"
     style="fill:#8392a9;fill-opacity:0.39215687" /></svg>