<?xml version="1.0" encoding="UTF-8" standalone="no"?>
<!-- Created with Inkscape (http://www.inkscape.org/) -->

<svg
   xmlns:dc="http://purl.org/dc/elements/1.1/"
   xmlns:cc="http://creativecommons.org/ns#"
   xmlns:rdf="http://www.w3.org/1999/02/22-rdf-syntax-ns#"
   xmlns:svg="http://www.w3.org/2000/svg"
   xmlns="http://www.w3.org/2000/svg"
   xmlns:sodipodi="http://sodipodi.sourceforge.net/DTD/sodipodi-0.dtd"
   xmlns:inkscape="http://www.inkscape.org/namespaces/inkscape"
   id="svg3336"
   version="1.1"
   inkscape:version="0.91 r13725"
   width="1134"
   height="1134"
   viewBox="0 0 1134 1134"
   sodipodi:docname="muted_suppressed.svg">
  <metadata
     id="metadata3342">
    <rdf:RDF>
      <cc:Work
         rdf:about="">
        <dc:format>image/svg+xml</dc:format>
        <dc:type
           rdf:resource="http://purl.org/dc/dcmitype/StillImage" />
        <dc:title></dc:title>
      </cc:Work>
    </rdf:RDF>
  </metadata>
  <defs
     id="defs3340" />
  <sodipodi:namedview
     pagecolor="#ffffff"
     bordercolor="#666666"
     borderopacity="1"
     objecttolerance="10"
     gridtolerance="10"
     guidetolerance="10"
     inkscape:pageopacity="0"
     inkscape:pageshadow="2"
     inkscape:window-width="1920"
     inkscape:window-height="1017"
     id="namedview3338"
     showgrid="false"
     inkscape:zoom="0.74779541"
     inkscape:cx="567"
     inkscape:cy="567"
     inkscape:window-x="-8"
     inkscape:window-y="-8"
     inkscape:window-maximized="1"
     inkscape:current-layer="svg3336" />
  <g
     id="g3346"
     transform="translate(30.757077,0)">
    <path
       style="fill:#70c896"
       d="m 331.5,1131.9235 c -7.18494,-2.2625 -14.60179,-7.6846 -19.65206,-14.3666 -16.28409,-21.5454 -9.06105,-54.2352 14.65206,-66.3116 10.46667,-5.3304 8.27115,-5.2207 104.75908,-5.2334 L 521.01816,1046 520.75908,994.81877 520.5,943.63754 505.52923,941.32295 C 479.2834,937.26515 445.02503,927.89127 420.5,918.05699 399.60632,909.67884 365,891.57691 365,889.02595 365,887.19404 426.9479,825 428.77256,825 c 0.70646,0 3.94462,1.34284 7.19592,2.98409 21.5181,10.8623 56.39424,21.40557 84.29599,25.48319 24.95401,3.64684 67.5827,3.66699 92.23553,0.0436 33.92988,-4.98689 71.75418,-17.5798 100.5,-33.45962 25.09512,-13.86311 46.11464,-29.90527 68.04856,-51.93487 17.59262,-17.66936 25.47148,-27.16008 37.454,-45.11639 19.44986,-29.14643 32.35959,-57.96382 40.99054,-91.5 7.60204,-29.53831 9.44893,-53.90675 9.48472,-125.14466 0.0209,-41.55243 0.1418,-44.53197 2.05932,-50.74015 5.50871,-17.83514 20.3919,-29.6084 39.59677,-31.3228 16.45016,-1.4685 34.19746,8.65154 41.79124,23.83062 5.73801,11.46961 5.77603,12.04231 5.28842,79.66729 -0.47447,65.80283 -0.64086,68.45196 -6.18282,98.43631 -13.11007,70.93112 -44.81596,135.38643 -93.73883,190.5629 -22.47216,25.34468 -52.45352,50.39132 -83.99826,70.17274 -13.41931,8.41514 -43.05794,23.5568 -58.52691,29.9 -26.10989,10.7066 -59.202,19.93495 -86.76675,24.19651 -7.7,1.19043 -14.5625,2.32508 -15.25,2.52145 -0.97901,0.27962 -1.25,11.42038 -1.25,51.38841 l 0,51.03138 89.75,0.012 c 71.74704,0.01 90.75295,0.2802 94.75,1.3495 16.11928,4.3122 27.82637,16.0193 32.13865,32.1386 4.87578,18.2257 -3.98831,40.3855 -19.54032,48.85 -11.07862,6.0297 6.18521,5.6359 -243.09833,5.5456 -221.13179,-0.08 -228.69348,-0.1436 -234.5,-1.9721 z M 67.262656,1040.4859 C 49.339348,1036.5919 35.955077,1022.4383 32.800612,1004.0428 31.315747,995.38376 32.62497,987.57936 37.169416,978 40.017255,971.99696 47.895951,963.84614 140.21856,871.39162 L 240.1841,771.28324 232.72014,758.89162 C 203.87977,711.01101 185.89928,659.30304 178.51172,603 c -2.44144,-18.60709 -3.7047,-57.67445 -3.25008,-100.51169 0.46056,-43.39761 0.64905,-45.04157 6.3691,-55.55119 9.30887,-17.10346 30.57285,-26.4538 49.00087,-21.54699 12.29451,3.27364 23.53373,12.08243 28.88172,22.63617 5.12514,10.11399 5.29633,12.31937 5.81955,74.9737 0.51252,61.37345 1.04834,70.16257 5.73058,94 3.41696,17.39582 9.8659,38.3678 17.30933,56.29004 4.81686,11.598 14.08477,30.01489 15.83556,31.46791 1.12253,0.93162 8.47167,-5.9298 38.17881,-35.64508 l 36.7887,-36.79877 -5.19564,-10.35352 C 364.22109,602.51326 358.12006,582.93941 354.29039,558.78998 352.61872,548.24865 352.5,535.66352 352.5,369 352.5,169.939 352.06069,183.44688 359.47487,154.53565 377.79531,83.095978 435.683,25.865194 509.17905,6.5303028 526.82,1.8894275 543.15627,0.03960014 566.5,0.03960014 c 23.20476,0 39.67853,1.84850036 56.91154,6.38596896 C 675.81502,20.223454 721.41608,53.510693 749.24489,98.279676 756.67469,110.2322 766.27935,130.8523 770.30812,143.5 777.54555,166.22079 780,183.43065 780,211.45662 l 0,20.00909 95.75,-95.59541 C 981.1592,30.631291 975.47945,35.704341 991.00071,32.930537 c 9.21759,-1.647282 17.94959,-0.116673 27.26729,4.779623 11.6883,6.142035 19.2996,16.63583 22.1591,30.551001 1.4218,6.918657 1.4367,8.520076 0.1372,14.7523 -0.8017,3.845126 -3.0543,10.027604 -5.0058,13.738839 -3.2365,6.155 -44.37074,47.55979 -468.30334,471.38382 -303.06071,302.98309 -466.35075,465.54518 -469.34133,467.24898 -4.62371,2.6343 -18.452251,6.6827 -22.323793,6.5354 -1.14952,-0.044 -4.896842,-0.6893 -8.327381,-1.4346 z M 547,738.39732 c -6.29553,-0.74181 -23.24856,-3.55547 -24.64021,-4.0895 C 521.61191,734.02083 521,733.27101 521,732.64155 c 0,-0.62947 57.55397,-58.69713 127.89771,-129.03926 97.28885,-97.28662 128.30204,-127.73962 129.5872,-127.24645 1.55841,0.59801 1.65224,3.77126 1.20935,40.89624 C 779.18544,559.9036 779.07352,561.09327 773.50893,583 759.19552,639.34911 720.02798,687.54368 666.5,714.67154 c -21.54768,10.92031 -42.22224,17.69435 -66.95799,21.93884 -8.65414,1.48499 -44.70039,2.71091 -52.54201,1.78694 z"
       id="path3350"
       inkscape:connector-curvature="0" />
    <path
       style="fill:#26ad5f"
       d="m 335.5,1133 c -1.1,-0.4727 -1.55,-0.9145 -1,-0.9818 0.55,-0.067 -1.475,-1.0681 -4.5,-2.224 -7.9298,-3.03 -18.87005,-14.1337 -21.96618,-22.2942 -8.51053,-22.4315 0.57632,-45.7888 21.70765,-55.7985 L 336.5,1048.5 l 93,-0.5 93,-0.5 0.2591,-51.9409 c 0.14251,-28.56749 -0.11196,-52.31196 -0.56549,-52.76549 -0.45352,-0.45352 -7.99512,-1.94698 -16.7591,-3.31878 -29.3,-4.58627 -61.26901,-13.64386 -89.43451,-25.33896 -14.01655,-5.82007 -48.15795,-23.10972 -48.6705,-24.64738 -0.18289,-0.54866 13.5874,-14.91205 30.60064,-31.91865 l 30.93316,-30.92109 9.84443,4.56918 c 28.20957,13.09317 63.41141,22.58518 95.79227,25.82994 14.236,1.42653 51.0448,1.42336 64.5,-0.006 59.10339,-6.27666 112.71168,-28.24119 159.16197,-65.21227 C 813.98902,747.39574 854.01709,679.85218 865.92146,609.99614 869.6124,588.3373 870.22383,576.83226 870.86369,517 L 871.5,457.5 874.62574,451 c 5.78972,-12.03978 14.25821,-19.38848 26.69661,-23.16653 20.06834,-6.09557 41.59649,3.91707 50.88532,23.66653 l 3.29233,7 0,64 c 0,67.66641 -0.16228,70.84947 -5.07273,99.5 C 934.0796,717.38228 882.53208,802.69069 804.50355,863.49603 755.72663,901.50645 690.9743,929.52307 630,938.99911 c -7.425,1.15392 -14.85,2.43052 -16.5,2.83689 l -3,0.73885 0,52.46258 0,52.46257 93.05271,0.5 93.05272,0.5 7.53782,3.7258 c 9.21585,4.5552 15.74584,11.208 20.17177,20.5509 2.97947,6.2895 3.18498,7.4331 3.18498,17.7233 0,10.4316 -0.1766,11.3768 -3.41735,18.2919 -4.24455,9.057 -13.24958,17.9885 -20.91608,20.7453 -2.78485,1.0014 -4.86665,2.1391 -4.62621,2.5281 0.24043,0.389 -0.57029,0.9773 -1.80161,1.3074 C 793.18939,1134.324 337.72467,1133.956 335.5,1133 Z M 68.235865,1038.9402 c -8.580307,-1.6917 -15.964156,-5.909 -22.527779,-12.8668 C 32.961487,1012.5614 30.578904,994.80976 39.192701,977.5301 40.503695,974.90018 76.083567,938.57567 141.60084,872.97869 196.82038,817.69197 242,772.09924 242,771.6615 c 0,-0.43774 -3.13806,-5.92209 -6.97346,-12.18744 -8.29727,-13.5541 -20.98542,-38.62058 -27.8943,-55.10751 C 189.71515,662.80349 180.18687,619.20159 177.98778,571 c -1.24599,-27.31056 -1.2065,-98.70527 0.0595,-107.5 3.29805,-22.91208 22.18281,-38.61199 44.8653,-37.29892 18.15357,1.05089 33.34286,13.63346 38.43825,31.84163 1.2623,4.51075 1.609,15.60382 1.9989,63.95729 0.49483,61.36502 1.02234,70.05705 5.70478,94 5.14135,26.28955 13.96057,52.08655 26.0842,76.2986 5.76424,11.51175 8.47208,15.7014 10.14806,15.7014 0.63279,0 17.70215,-16.52933 37.93191,-36.73184 C 368.80635,645.7149 380,633.88181 380,632.38563 c 0,-1.18288 -2.68589,-7.71605 -5.96864,-14.51816 C 362.47885,593.9298 356.69821,570.96908 354.93079,542 c -0.71399,-11.70277 -0.92962,-73.48466 -0.65091,-186.5 0.45584,-184.8426 0.0905,-173.35865 6.3148,-198.5 4.7993,-19.38549 15.19936,-43.49775 26.02027,-60.327308 11.16832,-17.369879 32.96978,-40.465518 50.84381,-53.862004 24.45553,-18.329281 59.51913,-33.4065238 89.71875,-38.578795 5.32263,-0.9116037 9.4974,-1.9488854 9.27726,-2.3050704 -0.7054,-1.14137432 11.34378,-1.92702243557 29.44192,-1.91971356 18.94795,0.00765208 31.32482,0.82547017 30.58593,2.02100706 -0.25299,0.4093464 2.12243,1.0607479 5.2787,1.447559 7.92631,0.9713936 29.99138,6.7215069 40.23868,10.4861189 12.31437,4.524004 33.10636,14.991673 43.5,21.899948 20.07051,13.340143 39.68013,31.968729 54.35769,51.638258 10.04013,13.45488 23.07722,38.90871 28.42631,55.5 7.46839,23.16471 9.716,39.06263 9.716,68.72377 0,19.56379 0.14029,21.27623 1.74299,21.27623 0.97781,0 43.88984,-42.10189 97.75,-95.90459 65.96271,-65.892331 97.33745,-96.566909 100.25846,-98.021058 26.32025,-13.102892 56.09575,1.82352 61.22875,30.693884 1.2653,7.117075 0.4571,13.226612 -3.0074,22.731764 -2.1442,5.882843 -11.2986,15.11465 -468.82984,472.79324 C 144.362,988.21036 99.936031,1032.3545 94.5,1034.9382 c -9.690786,4.6058 -17.31162,5.767 -26.264135,4.002 z M 541.58701,735.89933 c -4.35214,-0.53151 -10.3209,-1.51379 -13.2639,-2.18285 L 522.97221,732.5 650.54589,605 778.11958,477.5 777.66685,518 c -0.47979,42.92053 -0.69331,45.22061 -6.07479,65.43954 -11.29361,42.43157 -35.73408,79.32369 -71.38004,107.74592 -27.3114,21.77668 -62.19639,36.97367 -99.71202,43.43766 -10.87448,1.87369 -47.52043,2.66753 -58.91299,1.27621 z"
       id="path3348"
       inkscape:connector-curvature="0" />
  </g>
</svg>
